HIERARCHY
ROOT pelvis
{
  OFFSET 0 100 0
  CHANNELS 6 Xposition Yposition Zposition Zrotation Xrotation Yrotation
  JOINT pelvis_right_femur
  {
    OFFSET -10.78128 -3.44521 -0.5502486
    CHANNELS 3 Zrotation Xrotation Yrotation
    JOINT right_femur_tibia
    {
      OFFSET -0.8047443 -44.0398 -0.1307829
      CHANNELS 3 Zrotation Xrotation Yrotation
      JOINT right_tibia_foot
      {
        OFFSET 3.006224 -47.83518 -5
        CHANNELS 3 Zrotation Xrotation Yrotation
        End Site
        {
          OFFSET 0 -5 15
        }
      }
    }
  }
  JOINT pelvis_left_femur
  {
    OFFSET 10.78128 -3.44521 -0.5502486
    CHANNELS 3 Zrotation Xrotation Yrotation
    JOINT left_femur_tibia
    {
      OFFSET 0.8047443 -44.0398 -0.1307829
      CHANNELS 3 Zrotation Xrotation Yrotation
      JOINT left_tibia_foot
      {
        OFFSET -4.370144 -48.10324 -4.275266
        CHANNELS 3 Zrotation Xrotation Yrotation
        End Site
        {
          OFFSET 0 -5 15
        }
      }
    }
  }
  JOINT pelvis_spine1
  {
    OFFSET 0 6.468898 -3.129235
    CHANNELS 3 Zrotation Xrotation Yrotation
    JOINT spine1
    {
      OFFSET 0 23.15396 4.99043
      CHANNELS 3 Zrotation Xrotation Yrotation
      JOINT spine2
      {
        OFFSET 0 20.79997 -5.064912
        CHANNELS 3 Zrotation Xrotation Yrotation
        JOINT neck
        {
          OFFSET 0 14.38658 9.616178
          CHANNELS 3 Zrotation Xrotation Yrotation
          End Site
          {
            OFFSET 0 20 0
          }
        }
      }
      JOINT right_manubrium
      {
        OFFSET -5.722621 16.35077 3.967754
        CHANNELS 3 Zrotation Xrotation Yrotation
        JOINT right_clavicle
        {
          OFFSET -13.16364 1.694482 -4.693211
          CHANNELS 3 Zrotation Xrotation Yrotation
          JOINT right_humerus
          {
            OFFSET -28.5034 -0.3100689 -2.792744
            CHANNELS 3 Zrotation Xrotation Yrotation
            JOINT right_radius
            {
              OFFSET -25.15693 0.02248979 -1.271978
              CHANNELS 3 Zrotation Xrotation Yrotation
              End Site
              {
                OFFSET -15 0 0
              }
            }
          }
        }
      }
      JOINT left_manubrium
      {
        OFFSET 5.722621 16.35077 3.967754
        CHANNELS 3 Zrotation Xrotation Yrotation
        JOINT left_clavicle
        {
          OFFSET 13.16364 1.694482 -4.693211
          CHANNELS 3 Zrotation Xrotation Yrotation
          JOINT left_humerus
          {
            OFFSET 29.39168 -1.063119 -2.237045
            CHANNELS 3 Zrotation Xrotation Yrotation
            JOINT left_radius
            {
              OFFSET 24.59957 -0.9528479 0.9047498
              CHANNELS 3 Zrotation Xrotation Yrotation
              End Site
              {
                OFFSET 15 -0 -0
              }
            }
          }
        }
      }
    }
  }
}
MOTION
Frames: 23
Frame Time: 0.0416666666667
-998.7105 188.0241 514.5478 7.091738 10.6769 135.9266 1.757612 3.211448 -6.118524 -0 17.40342 -0 -12.37967 -2.394007 3.237959 -2.510039 -1.976357 -8.449469 -0 6.311379 -0 7.073607 -4.708376 12.96129 -0.3916594 -2.33593 3.546853 -0.4220848 14.80314 -6.711604 0.6702168 23.47865 5.462977 5.768185 -15.36103 3.096312 0.4671145 -17.67135 12.16838 91.11269 20.25692 -21.49494 -0 0 9.498774 -26.0151 10.7672 8.920665 8.644393 -28.78897 -10.89704 -86.22856 9.069957 9.852685 0 0 -24.4852 18.25527 16.75159 -12.07709
-996.0714 187.8518 509.5864 7.200384 10.60581 135.3495 1.75911 3.225116 -6.115154 -0 17.40791 -0 -12.37937 -2.400077 3.234641 -2.506966 -1.984094 -8.448605 -0 6.311788 -0 7.067758 -4.704633 12.96171 -0.390887 -2.33565 3.547509 -0.422142 14.80401 -6.711618 0.6702445 23.47831 5.46267 5.768261 -15.36118 3.095952 0.4670692 -17.67225 12.16884 91.11262 20.2567 -21.4942 -0 0 9.500808 -26.01507 10.7678 8.920114 8.643399 -28.78884 -10.89739 -86.23009 9.069411 9.855549 0 0 -24.4804 18.2545 16.75123 -12.07652
-993.3827 187.6801 504.6511 7.308369 10.5338 134.7726 1.759977 3.239664 -6.112397 -0 17.41297 -0 -12.37898 -2.406757 3.231428 -2.504331 -1.991225 -8.448974 -0 6.311849 -0 7.060447 -4.701557 12.96275 -0.3902581 -2.3354 3.548075 -0.422219 14.80474 -6.711603 0.6702568 23.478 5.462415 5.768405 -15.36119 3.09557 0.4671441 -17.67297 12.16922 91.11239 20.25661 -21.49348 -0 0 9.50266 -26.01509 10.7683 8.919667 8.642609 -28.78871 -10.89769 -86.23142 9.068886 9.857956 0 0 -24.47614 18.25386 16.75089 -12.0761
-990.6448 187.509 499.7424 7.415639 10.46088 134.1959 1.760214 3.254813 -6.110288 -0 17.4185 -0 -12.3785 -2.413911 3.228373 -2.50217 -1.997641 -8.450538 -0 6.31157 -0 7.051838 -4.699185 12.96436 -0.3897803 -2.335183 3.548543 -0.4223138 14.80533 -6.711561 0.6702539 23.47775 5.462215 5.768612 -15.36109 3.095173 0.4673348 -17.6735 12.16953 91.11201 20.25664 -21.49278 -0 0 9.504304 -26.01516 10.7687 8.91933 8.642031 -28.78859 -10.89796 -86.23253 9.068389 9.859875 0 0 -24.47249 18.25334 16.75056 -12.07582
-987.8579 187.3386 494.8609 7.522141 10.38704 133.6195 1.759833 3.270281 -6.10885 -0 17.42437 -0 -12.37795 -2.421399 3.225527 -2.50051 -2.003245 -8.45324 -0 6.310969 -0 7.042117 -4.697544 12.96652 -0.3894584 -2.335002 3.548907 -0.4224245 14.80578 -6.711492 0.6702364 23.47754 5.462073 5.768878 -15.36086 3.094768 0.4676348 -17.67384 12.16976 91.11149 20.2568 -21.49211 -0 0 9.505714 -26.01528 10.769 8.919106 8.64167 -28.78848 -10.89817 -86.23341 9.06793 9.861283 0 0 -24.4695 18.25297 16.75026 -12.07569
-985.0224 187.1688 490.0072 7.627824 10.3123 133.0434 1.758858 3.285787 -6.108092 -0 17.43049 -0 -12.37733 -2.429078 3.222936 -2.499366 -2.007957 -8.457003 -0 6.310065 -0 7.031482 -4.696644 12.96915 -0.3892941 -2.33486 3.549163 -0.4225485 14.80607 -6.711399 0.6702048 23.47739 5.46199 5.769197 -15.36052 3.094363 0.468036 -17.67398 12.16991 91.11085 20.25707 -21.49149 -0 0 9.506871 -26.01544 10.76919 8.918997 8.641528 -28.78838 -10.89834 -86.23405 9.067514 9.862167 0 0 -24.46721 18.25273 16.74998 -12.0757
-982.1386 186.9996 485.1819 7.732638 10.23665 132.4677 1.75732 3.301058 -6.10801 -0 17.43673 -0 -12.37668 -2.436807 3.22064 -2.498747 -2.011718 -8.461734 -0 6.308883 -0 7.020145 -4.696481 12.97222 -0.3892864 -2.334759 3.549308 -0.4226835 14.80621 -6.711283 0.6701602 23.47729 5.461965 5.76956 -15.36008 3.093965 0.4685289 -17.67393 12.16998 91.11009 20.25746 -21.49093 -0 0 9.507761 -26.01565 10.76927 8.919001 8.641602 -28.78829 -10.89846 -86.23445 9.067149 9.862525 0 0 -24.46563 18.25264 16.74973 -12.07585
-979.2068 186.8311 480.3856 7.836536 10.16008 131.8924 1.755263 3.315832 -6.10859 -0 17.44298 -0 -12.37599 -2.444446 3.218672 -2.498648 -2.014484 -8.467324 -0 6.307453 -0 7.008322 -4.697041 12.97564 -0.3894315 -2.334698 3.549344 -0.4228267 14.8062 -6.711149 0.6701036 23.47725 5.461998 5.769961 -15.35955 3.09358 0.4691024 -17.6737 12.16997 91.10925 20.25794 -21.49043 -0 0 9.508373 -26.01588 10.76924 8.919117 8.641884 -28.78821 -10.89853 -86.2346 9.066839 9.862364 0 0 -24.46479 18.25268 16.74953 -12.07614
-976.2274 186.6631 475.6188 7.939472 10.08262 131.3175 1.752736 3.329861 -6.109803 -0 17.44914 -0 -12.37528 -2.451861 3.217058 -2.499058 -2.016234 -8.473651 -0 6.305809 -0 6.996236 -4.698294 12.97936 -0.3897231 -2.334678 3.549272 -0.4229754 14.80605 -6.710997 0.6700363 23.47726 5.462086 5.770392 -15.35893 3.093216 0.4697443 -17.67328 12.16988 91.10832 20.25851 -21.49001 -0 0 9.508705 -26.01615 10.76911 8.919338 8.642365 -28.78814 -10.89855 -86.2345 9.06659 9.861699 0 0 -24.46467 18.25286 16.74936 -12.07655
-973.2007 186.4957 470.882 8.041406 10.00424 130.743 1.749797 3.342919 -6.111612 -0 17.4551 -0 -12.37458 -2.458928 3.215818 -2.499955 -2.016961 -8.480585 -0 6.303986 -0 6.984107 -4.700201 12.98329 -0.3901522 -2.334699 3.549097 -0.4231268 14.80575 -6.710832 0.6699599 23.47732 5.462227 5.770843 -15.35824 3.092878 0.4704416 -17.67271 12.16971 91.10734 20.25915 -21.48966 -0 0 9.508757 -26.01644 10.76887 8.91966 8.64303 -28.78809 -10.89851 -86.23418 9.066404 9.860555 0 0 -24.46526 18.25317 16.74923 -12.07708
-970.1271 186.3288 466.1758 8.1423 9.924948 130.1691 1.746508 3.354801 -6.113969 -0 17.46076 -0 -12.37388 -2.46553 3.214963 -2.501311 -2.01668 -8.487987 -0 6.302021 -0 6.972149 -4.702708 12.98736 -0.3907077 -2.33476 3.548823 -0.4232782 14.80531 -6.710657 0.6698758 23.47744 5.462417 5.771307 -15.3575 3.092572 0.4711807 -17.67198 12.16948 91.10632 20.25985 -21.4894 -0 0 9.508535 -26.01675 10.76855 8.920073 8.643865 -28.78806 -10.89843 -86.23362 9.066283 9.858965 0 0 -24.46654 18.2536 16.74914 -12.07771
-967.007 186.1623 461.5008 8.242121 9.844744 129.5956 1.742938 3.36533 -6.116818 -0 17.46603 -0 -12.37321 -2.471563 3.214499 -2.503089 -2.015423 -8.495714 -0 6.299952 -0 6.960569 -4.705757 12.99149 -0.3913766 -2.334858 3.548459 -0.423427 14.80476 -6.710475 0.6697858 23.4776 5.46265 5.771775 -15.35672 3.092302 0.4719474 -17.67111 12.16918 91.10527 20.2606 -21.48922 -0 0 9.50805 -26.01708 10.76814 8.920569 8.644849 -28.78804 -10.89831 -86.23286 9.066227 9.856968 0 0 -24.46845 18.25414 16.7491 -12.07843
-963.8406 185.9961 456.8574 8.340841 9.763624 129.0227 1.739155 3.374357 -6.120095 -0 17.47082 -0 -12.37257 -2.476936 3.214422 -2.505245 -2.013238 -8.50362 -0 6.29782 -0 6.949562 -4.709278 12.99561 -0.3921442 -2.33499 3.548012 -0.4235705 14.8041 -6.710289 0.6696917 23.47781 5.462922 5.772239 -15.35591 3.092071 0.4727276 -17.67013 12.16882 91.10423 20.26139 -21.48913 -0 0 9.507318 -26.01741 10.76766 8.921136 8.645961 -28.78803 -10.89814 -86.23192 9.066236 9.85461 0 0 -24.47096 18.25478 16.7491 -12.07923
-960.6285 185.8303 452.2461 8.438434 9.681584 128.4504 1.735234 3.381762 -6.123729 -0 17.47507 -0 -12.37197 -2.481572 3.214724 -2.507732 -2.010188 -8.511562 -0 6.295661 -0 6.939308 -4.713196 12.99965 -0.3929943 -2.335154 3.547494 -0.4237065 14.80335 -6.710102 0.6695951 23.47805 5.463227 5.77269 -15.35509 3.091883 0.4735073 -17.66905 12.16842 91.1032 20.26218 -21.48912 -0 0 9.506359 -26.01775 10.76711 8.921764 8.647179 -28.78804 -10.89793 -86.2308 9.066308 9.851943 0 0 -24.474 18.2555 16.74914 -12.08008
-957.3708 185.6647 447.6675 8.534882 9.598622 127.8786 1.731246 3.387457 -6.127647 -0 17.47872 -0 -12.37143 -2.485412 3.215389 -2.510496 -2.00635 -8.519397 -0 6.293514 -0 6.929967 -4.71743 13.00353 -0.3939097 -2.335346 3.546915 -0.4238326 14.80252 -6.709919 0.6694979 23.47833 5.463558 5.773121 -15.35428 3.09174 0.4742729 -17.6679 12.16797 91.1022 20.26299 -21.48919 -0 0 9.505194 -26.01808 10.76651 8.922439 8.648477 -28.78807 -10.8977 -86.22954 9.06644 9.849021 0 0 -24.4775 18.25629 16.74922 -12.08098
-954.0682 185.4993 443.122 8.630171 9.514734 127.3073 1.727263 3.391387 -6.131771 -0 17.48171 -0 -12.37095 -2.488408 3.216394 -2.513481 -2.001813 -8.52699 -0 6.291416 -0 6.92168 -4.721898 13.00719 -0.3948726 -2.335562 3.546288 -0.423947 14.80163 -6.709741 0.6694018 23.47863 5.463909 5.773524 -15.35348 3.091642 0.4750112 -17.6667 12.16749 91.10125 20.26377 -21.48934 -0 0 9.503852 -26.0184 10.76586 8.923149 8.649831 -28.7881 -10.89743 -86.22817 9.066628 9.845905 0 0 -24.48138 18.25713 16.74934 -12.0819
-950.7208 185.334 438.6101 8.724289 9.429919 126.7366 1.723354 3.393529 -6.136023 -0 17.48401 -0 -12.37053 -2.490533 3.217713 -2.516629 -1.996675 -8.534215 -0 6.2894 -0 6.914566 -4.726514 13.01058 -0.3958648 -2.335797 3.545624 -0.4240479 14.80069 -6.709572 0.6693083 23.47896 5.464273 5.773894 -15.35271 3.091591 0.4757101 -17.66547 12.16699 91.10037 20.26454 -21.48957 -0 0 9.50236 -26.01871 10.76519 8.923879 8.651216 -28.78815 -10.89714 -86.22671 9.066867 9.842653 0 0 -24.48558 18.25801 16.7495 -12.08283
-947.329 185.1687 434.1322 8.817232 9.344175 126.1665 1.719586 3.393892 -6.140324 -0 17.4856 -0 -12.37018 -2.491773 3.219314 -2.519881 -1.991044 -8.540953 -0 6.287498 -0 6.90872 -4.731192 13.01364 -0.3968679 -2.336047 3.544936 -0.4241339 14.79973 -6.709416 0.6692191 23.4793 5.464644 5.774225 -15.35199 3.091587 0.4763583 -17.66423 12.16648 91.09957 20.26526 -21.48987 -0 0 9.500749 -26.019 10.76451 8.924617 8.652606 -28.78821 -10.89684 -86.22519 9.067152 9.839328 0 0 -24.49 18.25891 16.74968 -12.08375
-943.8934 185.0033 429.6887 8.909001 9.257499 125.5969 1.716021 3.392515 -6.144596 -0 17.48647 -0 -12.3699 -2.49213 3.221161 -2.523176 -1.98503 -8.5471 -0 6.285739 -0 6.90421 -4.735848 13.01632 -0.397864 -2.336307 3.544238 -0.4242039 14.79876 -6.709273 0.6691357 23.47965 5.465013 5.774512 -15.35132 3.091627 0.4769458 -17.66301 12.16596 91.09886 20.26593 -21.49022 -0 0 9.49905 -26.01926 10.76382 8.92535 8.653977 -28.78829 -10.89653 -86.22363 9.067476 9.835989 0 0 -24.49457 18.25981 16.7499 -12.08465
-940.4141 184.8378 425.2802 8.999599 9.169891 125.0278 1.712716 3.389468 -6.148765 -0 17.48662 -0 -12.3697 -2.491623 3.223215 -2.526456 -1.978751 -8.552563 -0 6.284149 -0 6.901082 -4.740402 13.01859 -0.3988358 -2.336571 3.543541 -0.4242571 14.7978 -6.709146 0.6690593 23.48001 5.465377 5.774751 -15.35071 3.09171 0.4774638 -17.66182 12.16545 91.09825 20.26655 -21.49063 -0 0 9.497297 -26.0195 10.76314 8.926063 8.655304 -28.78836 -10.89621 -86.22207 9.067832 9.832697 0 0 -24.49919 18.2607 16.75013 -12.0855
-936.8915 184.6721 420.9068 9.089034 9.081351 124.4592 1.709721 3.384846 -6.152761 -0 17.48607 -0 -12.36957 -2.490283 3.225434 -2.529665 -1.972322 -8.557265 -0 6.282751 -0 6.899354 -4.744776 13.02043 -0.3997668 -2.336836 3.542858 -0.4242931 14.79686 -6.709038 0.6689911 23.48035 5.465727 5.774939 -15.35018 3.091833 0.4779051 -17.6607 12.16496 91.09775 20.26709 -21.49108 -0 0 9.495521 -26.0197 10.76248 8.926746 8.656567 -28.78845 -10.89589 -86.22054 9.068214 9.829507 0 0 -24.50378 18.26156 16.75038 -12.0863
-933.3262 184.5061 416.5692 9.177319 8.991879 123.8912 1.70708 3.37877 -6.156518 -0 17.48485 -0 -12.36951 -2.488157 3.227776 -2.532748 -1.965861 -8.561143 -0 6.281563 -0 6.899019 -4.748899 13.0218 -0.4006416 -2.337096 3.542201 -0.4243115 14.79597 -6.708949 0.668932 23.48069 5.466058 5.775075 -15.34974 3.091994 0.4782639 -17.65964 12.16448 91.09736 20.26756 -21.49157 -0 0 9.493754 -26.01986 10.76185 8.927387 8.657743 -28.78854 -10.89557 -86.21905 9.068613 9.826473 0 0 -24.50828 18.26238 16.75065 -12.08704
-929.7182 184.3399 412.2676 9.26447 8.901478 123.3235 1.704831 3.371385 -6.159977 -0 17.48298 -0 -12.36952 -2.485303 3.230196 -2.535656 -1.959481 -8.564152 -0 6.2806 -0 6.900048 -4.752705 13.02271 -0.4014466 -2.337346 3.541581 -0.4243126 14.79513 -6.708881 0.6688829 23.48101 5.466365 5.775158 -15.34938 3.092188 0.478536 -17.65868 12.16404 91.09709 20.26794 -21.49209 -0 0 9.492028 -26.01999 10.76126 8.927975 8.658815 -28.78863 -10.89527 -86.21764 9.069022 9.823645 0 0 -24.51259 18.26314 16.75092 -12.0877
